<?xml version="1.0" standalone="no"?>
<!DOCTYPE svg PUBLIC "-//W3C//DTD SVG 20010904//EN"
 "http://www.w3.org/TR/2001/REC-SVG-20010904/DTD/svg10.dtd">
<svg version="1.0" xmlns="http://www.w3.org/2000/svg"
 width="225.000000pt" height="225.000000pt" viewBox="0 0 225.000000 225.000000"
 preserveAspectRatio="xMidYMid meet">
<metadata>
Created by potrace 1.16, written by Peter Selinger 2001-2019
</metadata>
<g transform="translate(0.000000,225.000000) scale(0.100000,-0.100000)"
fill="#000000" stroke="none">
<path d="M1475 2065 c-17 -16 -25 -35 -25 -57 0 -28 15 -48 120 -153 l120
-120 -415 -415 c-248 -248 -415 -423 -415 -434 0 -21 144 -173 173 -182 16 -5
98 72 438 412 l419 418 123 -122 c106 -104 128 -122 155 -122 35 0 68 27 77
62 3 13 5 173 3 356 l-3 334 -28 24 -28 24 -345 0 -345 0 -24 -25z"/>
<path d="M282 1919 c-101 -20 -201 -102 -250 -207 l-27 -57 0 -610 0 -610 33
-67 c39 -80 111 -148 192 -181 54 -22 62 -22 625 -25 362 -2 586 1 617 7 153
33 263 148 288 302 15 95 13 451 -3 473 -10 14 -25 16 -77 14 l-65 -3 -5 -240
c-4 -208 -7 -245 -24 -278 -23 -46 -79 -94 -126 -107 -49 -14 -1103 -13 -1153
1 -21 6 -56 26 -77 45 -73 66 -71 50 -68 690 l3 571 28 40 c15 22 46 50 70 64
l42 24 485 5 485 5 3 63 c2 38 -2 69 -9 78 -10 12 -87 14 -478 13 -256 -1
-485 -5 -509 -10z"/>
</g>
</svg>
