<?xml version="1.0" standalone="no"?>
<!DOCTYPE svg PUBLIC "-//W3C//DTD SVG 20010904//EN"
 "http://www.w3.org/TR/2001/REC-SVG-20010904/DTD/svg10.dtd">
<svg version="1.0" xmlns="http://www.w3.org/2000/svg"
 width="300.000000pt" height="275.000000pt" viewBox="0 0 300.000000 275.000000"
 preserveAspectRatio="xMidYMid meet">
<metadata>
Created by potrace 1.16, written by Peter Selinger 2001-2019
</metadata>
<g transform="translate(0.000000,275.000000) scale(0.100000,-0.100000)"
fill="#000000" stroke="none">
<path d="M1468 1432 c-1113 -1112 -1138 -1138 -1138 -1175 0 -54 43 -97 97
-97 37 0 62 24 1175 1138 1137 1136 1138 1137 1138 1178 0 55 -39 94 -96 94
-39 0 -51 -12 -1176 -1138z"/>
<path d="M1262 2114 c-343 -47 -673 -184 -962 -401 -77 -58 -100 -128 -61
-187 43 -65 121 -75 192 -25 293 204 491 295 765 349 128 26 428 38 539 22
l70 -10 103 101 c56 56 102 105 102 108 0 10 -84 27 -210 44 -132 18 -402 17
-538 -1z"/>
<path d="M2260 1865 l-94 -95 44 -17 c25 -9 90 -40 145 -68 89 -45 149 -83
299 -188 58 -40 116 -34 163 17 46 50 47 110 2 161 -53 60 -363 254 -444 279
-16 5 -40 -14 -115 -89z"/>
<path d="M1300 1664 c-225 -33 -435 -114 -637 -247 -115 -75 -141 -119 -113
-192 18 -48 58 -75 110 -75 40 0 59 8 126 52 158 104 349 183 506 208 l76 12
128 129 129 129 -115 -1 c-63 -1 -158 -7 -210 -15z"/>
<path d="M1907 1512 c-53 -53 -97 -101 -97 -105 0 -4 9 -7 20 -7 37 0 215 -62
302 -106 48 -24 122 -67 165 -95 71 -46 82 -50 122 -46 62 7 102 49 108 114 6
62 -16 91 -125 161 -118 76 -342 182 -384 182 -7 0 -57 -44 -111 -98z"/>
<path d="M1460 1065 l-135 -136 45 8 c25 4 110 8 190 7 130 -1 154 -4 230 -29
47 -15 124 -48 171 -72 96 -51 125 -52 179 -7 61 52 60 137 -1 189 -70 58
-266 136 -408 160 -136 24 -121 31 -271 -120z"/>
<path d="M1480 759 c-59 -11 -118 -55 -155 -114 -26 -42 -30 -58 -30 -119 0
-82 20 -130 73 -182 49 -48 107 -67 186 -62 126 8 213 94 223 221 14 166 -128
288 -297 256z"/>
</g>
</svg>
